<svg width="9" height="7" viewBox="0 0 9 7" fill="none" xmlns="http://www.w3.org/2000/svg">
<path fill-rule="evenodd" clip-rule="evenodd" d="M0.445496 1.1285C0.567266 1.01134 0.730568 0.947327 0.899515 0.950514C1.06846 0.953702 1.22923 1.02383 1.3465 1.1455L4.5 4.4928L7.6535 1.1455C7.71082 1.08231 7.78024 1.03126 7.85765 0.995393C7.93506 0.959522 8.01888 0.939554 8.10415 0.936673C8.18942 0.933792 8.2744 0.948056 8.35406 0.97862C8.43371 1.00918 8.50642 1.05543 8.56788 1.11461C8.62933 1.17379 8.67828 1.2447 8.71183 1.32314C8.74538 1.40159 8.76284 1.48597 8.76318 1.57129C8.76351 1.6566 8.74672 1.74112 8.7138 1.81983C8.68087 1.89854 8.63248 1.96984 8.5715 2.0295L4.959 5.8545C4.89953 5.9162 4.82823 5.96527 4.74937 5.99879C4.6705 6.03232 4.58569 6.04959 4.5 6.04959C4.4143 6.04959 4.32949 6.03232 4.25063 5.99879C4.17176 5.96527 4.10046 5.9162 4.041 5.8545L0.428496 2.0295C0.311341 1.90773 0.247323 1.74443 0.25051 1.57548C0.253698 1.40653 0.323831 1.24576 0.445496 1.1285Z" fill="black"/>
</svg>
