<svg xmlns="http://www.w3.org/2000/svg" width="44" height="37" viewBox="0 0 44 37">
  <g id="Frame" transform="translate(0 0.182)">
    <rect id="Frame-2" data-name="Frame" width="44" height="37" transform="translate(0 -0.182)" fill="none"/>
    <path id="Vector" d="M0,3.658A3.66,3.66,0,0,1,3.662,0H40.293a3.661,3.661,0,0,1,3.664,3.658l-.029,1.829S25.722,15.725,21.978,15.725C18.405,15.725,0,5.288,0,5.288ZM43.957,32.924a3.661,3.661,0,0,1-3.664,3.658H3.662A3.662,3.662,0,0,1,0,32.924l.029-21.95s18.376,9.78,21.948,9.78c3.916,0,21.95-9.78,21.95-9.78Z" transform="translate(0 0.016)" fill-rule="evenodd"/>
  </g>
</svg>
