<svg xmlns="http://www.w3.org/2000/svg" width="40.704" height="61.707" viewBox="0 0 40.704 61.707">
  <g id="Final_1" data-name="Final 1" transform="translate(0.067 0.067)">
    <rect id="Final_1-2" data-name="Final 1" width="33" height="50" fill="none"/>
    <g id="Layer_1" data-name="Layer 1">
      <g id="Group">
        <g id="Group-2" data-name="Group">
          <path id="Vector" d="M12.692,0V6.285L7.956,10.7,5.272,13.2v3.333l5.109-4.769.008.008v5.337L5.3,21.873,5.3,35.491,0,40.462V11.833L12.684,0Z" transform="translate(20.008 9.262)" fill="#fff"/>
          <path id="Vector-2" data-name="Vector" d="M8.9,3.487,12.636,0l4.079,1.817v.008L4.031,13.658v-.016H4.014L0,11.817v-.024Z" transform="translate(15.977 7.437)" fill="#fff"/>
          <path id="Vector-3" data-name="Vector" d="M5.109,1.071,0,5.839V2.506L2.684,0l.008.016Z" transform="translate(25.279 19.959)" fill="#fff"/>
          <path id="Vector-4" data-name="Vector" d="M3.787,13.56l-.016.016.016.008V36.942L0,40.462V11.833L12.692,0V5.255Z" transform="translate(12.189 5.669)"/>
          <path id="Vector-5" data-name="Vector" d="M8.872,3.512,12.644,0l4.071,1.817h.008L4.031,13.65v-.008H4.014L0,11.809v-.016Z" transform="translate(8.159 3.852)" fill="#fff"/>
          <path id="Vector-6" data-name="Vector" d="M4.031,1.841V30.47L0,28.654V0L4.015,1.825h.016Z" transform="translate(15.977 19.254)" fill="#fff"/>
          <path id="Vector-7" data-name="Vector" d="M3.82,13.544l-.016.008.016.008V36.9L0,40.462V11.833L12.684,0h.008V5.264Z" transform="translate(4.339 2.101)"/>
          <path id="Vector-8" data-name="Vector" d="M4.031,13.642H4.015L0,11.817v-.024L12.636,0l4.079,1.817v.008L4.031,13.658Z" transform="translate(0.308 0.276)" fill="#fff"/>
          <path id="Vector-9" data-name="Vector" d="M4.031,1.841V30.47L0,28.662V0L4.015,1.833h.016Z" transform="translate(8.159 15.661)" fill="#fff"/>
          <path id="Vector-10" data-name="Vector" d="M4.031,1.841V30.47L0,28.654V0L4.015,1.825h.016Z" transform="translate(0.308 12.092)" fill="#fff"/>
        </g>
        <g id="Group-3" data-name="Group">
          <path id="Vector-11" data-name="Vector" d="M0,0,4.031,1.817" transform="translate(15.977 47.908)" fill="none" stroke="#231f20" stroke-width="0.75"/>
          <path id="Vector-12" data-name="Vector" d="M0,0,2.417,1.054l.008.008" transform="translate(27.972 19.976)" fill="none" stroke="#231f20" stroke-width="0.75"/>
          <path id="Vector-13" data-name="Vector" d="M4.031,1.833.016.008,0,0" transform="translate(15.961 19.246)" fill="none" stroke="#231f20" stroke-width="0.75"/>
          <path id="Vector-14" data-name="Vector" d="M0,0,4.079,1.817" transform="translate(28.612 7.437)" fill="none" stroke="#231f20" stroke-width="0.75"/>
          <path id="Vector-15" data-name="Vector" d="M0,28.678V0" transform="translate(15.977 19.23)" fill="none" stroke="#231f20" stroke-width="0.75"/>
          <path id="Vector-16" data-name="Vector" d="M0,28.686V0" transform="translate(20.008 21.038)" fill="none" stroke="#231f20" stroke-width="0.75"/>
          <path id="Vector-17" data-name="Vector" d="M.008,13.617,0,0" transform="translate(25.304 31.135)" fill="none" stroke="#231f20" stroke-width="0.75"/>
          <path id="Vector-18" data-name="Vector" d="M0,3.333V0" transform="translate(25.279 22.466)" fill="none" stroke="#231f20" stroke-width="0.75"/>
          <path id="Vector-19" data-name="Vector" d="M0,5.426V0" transform="translate(30.397 21.038)" fill="none" stroke="#231f20" stroke-width="0.75"/>
          <path id="Vector-20" data-name="Vector" d="M0,6.367V0" transform="translate(32.7 9.262)" fill="none" stroke="#231f20" stroke-width="0.75"/>
          <path id="Vector-21" data-name="Vector" d="M12.652,0,8.921,3.487l-8.9,8.3L0,11.809" transform="translate(15.961 7.437)" fill="none" stroke="#231f20" stroke-width="0.75"/>
          <path id="Vector-22" data-name="Vector" d="M12.741,0l-.024.032h-.008L.024,11.865,0,11.89" transform="translate(19.983 9.23)" fill="none" stroke="#231f20" stroke-width="0.75"/>
          <path id="Vector-23" data-name="Vector" d="M7.437,0,7.421.024,2.684,4.436,0,6.942" transform="translate(25.279 15.523)" fill="none" stroke="#231f20" stroke-width="0.75"/>
          <path id="Vector-24" data-name="Vector" d="M5.134,0,5.109.024,0,4.793" transform="translate(25.279 21.006)" fill="none" stroke="#231f20" stroke-width="0.75"/>
          <path id="Vector-25" data-name="Vector" d="M5.134,0,5.093.041,0,4.8" transform="translate(25.304 26.334)" fill="none" stroke="#231f20" stroke-width="0.75"/>
          <path id="Vector-26" data-name="Vector" d="M0,5l.024-.024L5.328,0" transform="translate(19.983 44.753)" fill="none" stroke="#231f20" stroke-width="0.75"/>
          <path id="Vector-27" data-name="Vector" d="M0,0,4.031,1.809" transform="translate(8.159 44.323)" fill="none" stroke="#231f20" stroke-width="0.75"/>
          <path id="Vector-28" data-name="Vector" d="M4.031,1.841.016.008,0,0" transform="translate(8.143 15.653)" fill="none" stroke="#231f20" stroke-width="0.75"/>
          <path id="Vector-29" data-name="Vector" d="M0,0,4.071,1.817" transform="translate(20.802 3.852)" fill="none" stroke="#231f20" stroke-width="0.75"/>
          <path id="Vector-30" data-name="Vector" d="M0,28.686V0" transform="translate(8.159 15.637)" fill="none" stroke="#231f20" stroke-width="0.75"/>
          <path id="Vector-31" data-name="Vector" d="M0,28.678V0" transform="translate(12.189 17.453)" fill="none" stroke="#231f20" stroke-width="0.75"/>
          <path id="Vector-32" data-name="Vector" d="M0,5.3V0" transform="translate(24.882 5.669)" fill="none" stroke="#231f20" stroke-width="0.75"/>
          <path id="Vector-33" data-name="Vector" d="M12.66,0,8.889,3.512.016,11.792,0,11.8" transform="translate(8.143 3.852)" fill="none" stroke="#231f20" stroke-width="0.75"/>
          <path id="Vector-34" data-name="Vector" d="M12.749,0l-.032.032L.024,11.865,0,11.89" transform="translate(12.165 5.637)" fill="none" stroke="#231f20" stroke-width="0.75"/>
          <path id="Vector-35" data-name="Vector" d="M0,3.552l.024-.024L3.812.008,3.82,0" transform="translate(12.165 42.603)" fill="none" stroke="#231f20" stroke-width="0.75"/>
          <path id="Vector-36" data-name="Vector" d="M0,0,4.031,1.817" transform="translate(0.308 40.746)" fill="none" stroke="#231f20" stroke-width="0.75"/>
          <path id="Vector-37" data-name="Vector" d="M4.031,1.833.016.008,0,0" transform="translate(0.292 12.084)" fill="none" stroke="#231f20" stroke-width="0.75"/>
          <path id="Vector-38" data-name="Vector" d="M0,0,4.079,1.817" transform="translate(12.944 0.276)" fill="none" stroke="#231f20" stroke-width="0.75"/>
          <path id="Vector-39" data-name="Vector" d="M0,28.678V0" transform="translate(0.308 12.068)" fill="none" stroke="#231f20" stroke-width="0.75"/>
          <path id="Vector-40" data-name="Vector" d="M0,28.686V0" transform="translate(4.339 13.877)" fill="none" stroke="#231f20" stroke-width="0.75"/>
          <path id="Vector-41" data-name="Vector" d="M0,5.272V0" transform="translate(17.031 2.101)" fill="none" stroke="#231f20" stroke-width="0.75"/>
          <path id="Vector-42" data-name="Vector" d="M0,11.809l.016-.016L12.652,0" transform="translate(0.292 0.276)" fill="none" stroke="#231f20" stroke-width="0.75"/>
          <path id="Vector-43" data-name="Vector" d="M12.741,0l-.024.032h-.008L.024,11.865,0,11.89" transform="translate(4.315 2.068)" fill="none" stroke="#231f20" stroke-width="0.75"/>
          <path id="Vector-44" data-name="Vector" d="M0,3.6l.024-.024L3.844.016,3.86,0" transform="translate(4.315 38.986)" fill="none" stroke="#231f20" stroke-width="0.75"/>
        </g>
      </g>
    </g>
  </g>
</svg>
