<svg id="Frame" xmlns="http://www.w3.org/2000/svg" width="42" height="42" viewBox="0 0 42 42">
  <rect id="Frame-2" data-name="Frame" width="42" height="42" fill="rgba(0,0,0,0)"/>
  <g id="_lt_Radial_Repeat_gt_" data-name="&amp;lt;Radial Repeat&amp;gt;">
    <path id="Vector" d="M1.51,0h.45a1.51,1.51,0,0,1,1.51,1.51V15.054a1.51,1.51,0,0,1-1.51,1.51H1.51A1.51,1.51,0,0,1,0,15.054V1.51A1.51,1.51,0,0,1,1.51,0Z" transform="translate(25.72 42) rotate(-180)" fill="#000"/>
  </g>
  <g id="_lt_Radial_Repeat_gt_2" data-name="&amp;lt;Radial Repeat&amp;gt;">
    <path id="Vector-2" data-name="Vector" d="M1.51,0h.45a1.51,1.51,0,0,1,1.51,1.51V15.054a1.51,1.51,0,0,1-1.51,1.51H1.51A1.51,1.51,0,0,1,0,15.054V1.51A1.51,1.51,0,0,1,1.51,0Z" transform="translate(9.486 39.185) rotate(-135)" fill="#000"/>
  </g>
  <g id="_lt_Radial_Repeat_gt_3" data-name="&amp;lt;Radial Repeat&amp;gt;">
    <path id="Vector-3" data-name="Vector" d="M1.51,0h.45a1.51,1.51,0,0,1,1.51,1.51V15.054a1.51,1.51,0,0,1-1.51,1.51H1.51A1.51,1.51,0,0,1,0,15.054V1.51A1.51,1.51,0,0,1,1.51,0Z" transform="translate(0 25.72) rotate(-90)" fill="#000"/>
  </g>
  <g id="_lt_Radial_Repeat_gt_4" data-name="&amp;lt;Radial Repeat&amp;gt;">
    <path id="Vector-4" data-name="Vector" d="M1.51,0h.45a1.51,1.51,0,0,1,1.51,1.51V15.054a1.51,1.51,0,0,1-1.51,1.51H1.51A1.51,1.51,0,0,1,0,15.054V1.51A1.51,1.51,0,0,1,1.51,0Z" transform="translate(2.821 9.489) rotate(-45)" fill="#000"/>
  </g>
  <g id="_lt_Radial_Repeat_gt_5" data-name="&amp;lt;Radial Repeat&amp;gt;">
    <path id="Vector-5" data-name="Vector" d="M1.51,0h.45a1.51,1.51,0,0,1,1.51,1.51V15.054a1.51,1.51,0,0,1-1.51,1.51H1.51A1.51,1.51,0,0,1,0,15.054V1.51A1.51,1.51,0,0,1,1.51,0Z" transform="translate(16.28)" fill="#000"/>
  </g>
  <g id="_lt_Radial_Repeat_gt_6" data-name="&amp;lt;Radial Repeat&amp;gt;">
    <path id="Vector-6" data-name="Vector" d="M1.51,0h.45a1.51,1.51,0,0,1,1.51,1.51V15.054a1.51,1.51,0,0,1-1.51,1.51H1.51A1.51,1.51,0,0,1,0,15.054V1.51A1.51,1.51,0,0,1,1.51,0Z" transform="translate(32.506 2.819) rotate(45)" fill="#000"/>
  </g>
  <g id="_lt_Radial_Repeat_gt_7" data-name="&amp;lt;Radial Repeat&amp;gt;">
    <path id="Vector-7" data-name="Vector" d="M1.51,0h.45a1.51,1.51,0,0,1,1.51,1.51V15.054a1.51,1.51,0,0,1-1.51,1.51H1.51A1.51,1.51,0,0,1,0,15.054V1.51A1.51,1.51,0,0,1,1.51,0Z" transform="translate(42 16.28) rotate(90)" fill="#000"/>
  </g>
  <g id="_lt_Radial_Repeat_gt_8" data-name="&amp;lt;Radial Repeat&amp;gt;">
    <path id="Vector-8" data-name="Vector" d="M1.51,0h.45a1.51,1.51,0,0,1,1.51,1.51V15.054a1.51,1.51,0,0,1-1.51,1.51H1.51A1.51,1.51,0,0,1,0,15.054V1.51A1.51,1.51,0,0,1,1.51,0Z" transform="translate(39.187 32.516) rotate(135)" fill="#000"/>
  </g>
</svg>
