<svg xmlns="http://www.w3.org/2000/svg" width="41" height="41.006" viewBox="0 0 41 41.006">
  <g id="Frame" transform="translate(0 0.006)">
    <rect id="Frame-2" data-name="Frame" width="41" height="41" fill="none"/>
    <path id="Vector" d="M20.537,41.006H20.42a20.326,20.326,0,0,1-11.932-3.89.128.128,0,0,1-.037-.024l-.086-.067a20.405,20.405,0,0,1-7.272-9.92c-.006-.018-.018-.037-.024-.055L1,26.836A20.486,20.486,0,0,1,0,20.5c0-.624.031-1.272.092-1.933l.043-.453a.288.288,0,0,1,.024-.1,20.354,20.354,0,0,1,2.2-7.045.425.425,0,0,1,.031-.08l.165-.3A20.481,20.481,0,0,1,7.535,4.611a20.812,20.812,0,0,1,3.78-2.446.215.215,0,0,1,.049-.031l.135-.067A20.282,20.282,0,0,1,17.338.239a.078.078,0,0,0,.037-.006L17.46.22h.024c.654-.1,1.309-.159,1.939-.2.33-.018.66-.024.979-.024h.153c.324,0,.648.006.972.024.636.031,1.278.1,1.926.19h.024l.11.018a.108.108,0,0,1,.037.006,20.226,20.226,0,0,1,5.822,1.822l.147.073a.272.272,0,0,1,.049.031,20.559,20.559,0,0,1,8.776,8.428l.165.3a.75.75,0,0,1,.031.08,20.264,20.264,0,0,1,2.2,7.045.572.572,0,0,1,.024.1l.043.453c.061.66.092,1.309.092,1.933a20.527,20.527,0,0,1-1,6.324l-.073.22a.3.3,0,0,1-.024.055,20.419,20.419,0,0,1-7.241,9.889.088.088,0,0,0-.018.012l-.1.073a.361.361,0,0,1-.037.024,20.339,20.339,0,0,1-11.932,3.89h-.024ZM9,36.456a19.522,19.522,0,0,0,11.063,3.706V34.1H19.84c-.073,0-.153-.006-.226-.006-.147,0-.294-.012-.44-.024l-.208-.012c-.067,0-.135-.006-.2-.012-.177-.012-.349-.031-.526-.043l-.318-.031c-.22-.024-.434-.049-.648-.079l-.19-.024c-.55-.073-1.107-.171-1.645-.287l-.049-.012c-.269-.061-.514-.11-.752-.171l-.312-.086-.483-.128a1.831,1.831,0,0,1-.2-.061l-.226-.067c-.122-.037-.239-.073-.355-.11-.073-.024-.147-.049-.226-.073l-.232-.08-.318-.11c-.086-.031-.165-.061-.245-.092l-.239-.092c-.092-.037-.183-.067-.275-.11s-.183-.073-.269-.116l-.226-.1-.251-.11-.281-.128-.214-.1c-.08-.037-.159-.073-.239-.116s-.183-.092-.281-.141l-.208-.1c-.08-.043-.159-.08-.232-.122-.092-.049-.19-.1-.281-.159l-.2-.116-.22-.128-.055-.037.012.349c0,.153.006.306.012.465.012.22.024.446.037.673l.031.483c.006.141.018.287.024.434.024.367.061.74.1,1.113l.024.269c.006.086.012.165.024.251.049.5.11,1,.177,1.5ZM20.91,34.089v6.067A19.462,19.462,0,0,0,31.973,36.45c.067-.508.122-1.009.177-1.5.006-.086.018-.165.024-.251l.018-.2c.037-.41.079-.8.1-1.186.012-.147.018-.287.024-.428l.031-.5c.012-.226.031-.446.037-.667.006-.159.012-.312.012-.465l.012-.349-.055.037-.22.128-.2.116c-.092.055-.19.1-.281.159s-.159.086-.239.122l-.2.1c-.092.049-.19.1-.287.147-.08.037-.159.08-.239.116l-.22.1c-.092.043-.183.086-.269.128l-.257.11-.232.1c-.086.037-.171.073-.263.11l-.275.11-.232.092c-.08.031-.165.067-.245.092-.1.037-.208.073-.318.11l-.232.08-.22.073-.367.11-.22.067c-.067.018-.128.043-.2.061-.153.043-.306.086-.459.122l-.336.086c-.239.061-.483.116-.728.165l-.08.018c-.544.116-1.095.208-1.645.287l-.19.024c-.214.031-.428.055-.648.08l-.263.024c-.22.018-.4.037-.581.049-.067,0-.128.006-.2.012l-.208.012c-.147.006-.294.018-.44.024h-.453ZM1.829,26.665a19.516,19.516,0,0,0,6.244,9.07l-.031-.269-.055-.477c-.024-.226-.043-.446-.061-.673l-.043-.5c-.012-.159-.031-.324-.043-.483-.018-.281-.037-.557-.049-.826l-.018-.336c-.012-.214-.024-.434-.031-.648-.018-.385-.031-.771-.037-1.15-.177-.116-.342-.239-.514-.361l-.159-.11c-.055-.037-.11-.08-.165-.116-.324-.239-.642-.489-.942-.746-.067-.055-.135-.116-.2-.177l-.214-.2c-.159-.141-.324-.281-.477-.428-.08-.073-.153-.153-.226-.226l-.232-.239c-.122-.122-.251-.251-.367-.379-.08-.086-.153-.177-.232-.269l-.22-.257c-.1-.122-.208-.239-.306-.361-.079-.1-.153-.2-.226-.3l-.2-.263c-.092-.122-.183-.239-.269-.361s-.147-.214-.214-.324l-.171-.269c-.079-.122-.159-.245-.232-.367L2.122,24.6l-.018.1-.037.2-.037.2c-.024.165-.049.336-.073.508l-.043.312c-.031.245-.061.5-.086.746Zm31.453,3.7c-.006.446-.018.9-.043,1.352,0,.067-.006.141-.012.214l-.012.159c-.018.41-.043.826-.073,1.242-.006.122-.018.245-.031.361l-.037.4c-.024.3-.049.593-.08.893-.012.141-.031.281-.049.422l-.037.324a19.565,19.565,0,0,0,6.244-9.076c-.024-.251-.055-.5-.086-.746l-.043-.318c-.024-.165-.043-.336-.073-.5l-.037-.2-.037-.2a.618.618,0,0,0-.018-.1c0,.006-.006.012-.012.018-.079.128-.159.257-.245.385l-.177.269c-.067.1-.128.208-.2.306-.092.135-.19.263-.287.391l-.2.257c-.067.092-.135.183-.208.275-.11.135-.22.263-.336.391l-.214.251c-.067.08-.141.165-.214.245-.128.135-.257.269-.391.4L36.15,28c-.067.073-.141.141-.214.214-.165.159-.342.312-.52.471l-.19.171a2.281,2.281,0,0,1-.183.159q-.468.394-.954.752c-.049.037-.1.073-.153.11l-.141.1c-.177.128-.355.257-.538.379ZM20.916,22.812V33.239h.2c.08,0,.153,0,.226-.006.11,0,.226-.012.336-.018l.269-.012c.073,0,.147-.006.22-.012.11-.006.226-.018.336-.031l.257-.024c.073,0,.147-.012.226-.018.116-.012.232-.024.349-.043l.251-.031c.067-.006.141-.018.208-.024.128-.018.257-.037.391-.061l.22-.037c.061-.012.128-.018.19-.031.141-.024.281-.055.422-.08l.367-.073c.159-.031.318-.073.477-.11l.306-.067c.2-.049.4-.1.6-.159l.171-.043c.245-.067.483-.147.722-.22a22.069,22.069,0,0,0,2.238-.862l.049.08a.286.286,0,0,0,.031-.012l-.037-.086c.226-.1.446-.208.667-.318l.1-.055c.2-.1.391-.2.587-.306l.147-.086c.177-.1.355-.2.526-.3l.171-.1c.1-.061.2-.122.306-.19,0-.336,0-.667-.006-.991v-.251c-.024-.96-.08-1.914-.165-2.825a1.406,1.406,0,0,0-.018-.159l-.018-.147c-.037-.355-.073-.709-.116-1.052l-.037-.257-.049-.312c-.037-.251-.073-.508-.116-.752-.018-.1-.037-.2-.055-.3l-.067-.367c-.037-.208-.073-.41-.122-.612l-.073-.312-.092-.385c-.043-.183-.086-.367-.128-.544-.031-.11-.061-.214-.092-.318l-.1-.355V19.95c-.037.024-.08.049-.116.073l-.232.141-.171.1c-.067.037-.128.08-.2.116l-.239.128-.177.1-.2.1c-.086.043-.171.08-.251.122l-.19.092-.2.092c-.086.037-.171.073-.263.116l-.19.086c-.067.031-.135.061-.2.086-.092.037-.183.073-.281.11l-.2.073-.2.073c-.1.037-.2.067-.287.1l-.2.067c-.067.024-.135.049-.2.067l-.3.092-.208.061-.19.055c-.135.037-.275.073-.416.11l-.294.08c-.239.061-.483.116-.728.165l-.135.024c-.2.043-.4.08-.605.116-.061.012-.122.018-.177.031l-.2.031-.367.055c-.061.006-.122.018-.183.024l-.208.024c-.122.012-.239.031-.361.043l-.2.018-.22.018c-.116.012-.226.018-.342.031-.073,0-.147.006-.22.012l-.226.012-.33.018h-.379ZM19.644,33.233h.428V22.812h-.159c-.073,0-.147,0-.22-.006-.11,0-.22-.012-.33-.018l-.226-.012c-.073,0-.147-.006-.22-.012-.116-.006-.226-.018-.342-.031l-.226-.018c-.067,0-.128-.012-.2-.018-.128-.012-.251-.031-.379-.043l-.2-.024c-.061-.006-.122-.012-.183-.024l-.367-.055-.2-.031c-.061-.006-.122-.018-.183-.031-.2-.037-.4-.073-.6-.116l-.135-.024c-.245-.049-.483-.1-.728-.165l-.287-.073L14.47,22l-.183-.055-.2-.061c-.1-.031-.214-.061-.318-.1a1.73,1.73,0,0,1-.19-.067l-.2-.067c-.1-.031-.2-.067-.294-.1l-.2-.073-.2-.08c-.092-.037-.183-.067-.275-.1-.067-.031-.135-.055-.208-.086l-.2-.086c-.086-.037-.171-.073-.251-.11s-.135-.061-.2-.1l-.19-.092c-.08-.037-.165-.08-.245-.116s-.135-.067-.2-.1l-.177-.092-.239-.128c-.067-.037-.128-.073-.2-.116l-.171-.1c-.08-.043-.153-.092-.232-.135-.043-.024-.08-.049-.116-.073v.006l-.1.361c-.031.1-.061.214-.092.318-.049.183-.092.367-.135.557l-.086.373-.073.312c-.043.2-.08.4-.116.612l-.073.373c-.018.1-.037.2-.055.3-.043.239-.073.483-.11.734l-.049.33-.037.257c-.043.349-.08.7-.116,1.052l-.018.141c-.006.055-.012.1-.018.159-.086.917-.141,1.865-.159,2.832v.251c-.006.33-.012.66-.012,1,.1.061.2.128.306.19l.171.1c.171.1.342.2.52.294l.159.092c.183.1.373.2.563.294l.135.067c.214.1.428.208.648.306a.2.2,0,0,0,.037.018,21.988,21.988,0,0,0,2.226.862l.128.037c.208.067.416.135.63.19l.3.08c.159.043.312.086.471.122.061.012.116.031.177.043l.22.049c.128.031.257.061.385.086l.2.037.232.043c.122.024.239.049.361.067.067.012.141.024.208.031l.251.037.342.055c.073.012.153.018.226.031l.245.031c.11.012.22.031.33.037l.239.018.257.024c.11.012.214.018.324.024.073,0,.153.006.226.012l.257.012.336.018ZM7.351,29.087c.086.067.177.128.269.19l.086.061V28.6c0-.171.012-.342.018-.514l.018-.459c0-.159.012-.324.018-.477.012-.19.024-.379.043-.563l.031-.428c.012-.141.018-.287.031-.428.018-.226.049-.453.073-.673l.043-.391c.012-.11.024-.214.037-.324.049-.391.11-.771.171-1.15L8.22,23c.073-.446.159-.887.251-1.315l.031-.122c.086-.385.171-.771.269-1.15a2.063,2.063,0,0,1,.061-.208l.067-.239c.043-.171.092-.336.141-.5-.024-.018-.049-.037-.067-.049l-.183-.135c-.055-.037-.11-.08-.159-.116q-.248-.193-.477-.385L8.1,18.739s-.055-.043-.08-.067c-.2-.171-.385-.342-.569-.52l-.128-.128L7.2,17.889c-.092-.092-.183-.183-.269-.281-.049-.055-.092-.11-.141-.159l-.135-.159c-.067-.08-.141-.159-.208-.245-.049-.061-.092-.122-.141-.183l-.128-.171-.171-.226c-.049-.067-.092-.135-.135-.2l-.11-.171c-.049-.073-.1-.153-.147-.226a.265.265,0,0,1-.024-.043l-.092.135c-.055.08-.116.159-.165.245-.086.135-.171.269-.251.4l-.177.281c-.049.08-.1.159-.147.245-.086.141-.159.287-.239.434l-.159.287c-.043.08-.092.159-.135.245-.073.147-.147.3-.22.453l-.147.306c-.037.08-.079.159-.116.245-.073.159-.141.324-.2.489l-.128.306c-.037.08-.067.165-.1.245-.067.183-.135.367-.2.55L3,21c-.024.073-.055.147-.079.22-.116.361-.232.734-.33,1.107-.018.067-.037.141-.055.214l-.067.275c-.043.171-.086.342-.128.52.11.208.226.416.342.624.018.037.037.067.055.1a.79.79,0,0,0,.055.1c.183.306.379.618.587.917.043.061.086.116.128.177l.183.245c.11.153.226.312.349.459l.19.226.239.281c.1.116.2.232.3.342.073.08.147.153.22.226l.263.269c.1.1.2.208.306.312.08.073.159.147.245.22l.275.251c.11.1.22.2.336.3.086.073.171.141.257.208l.294.232.361.287ZM31.93,19.454c.049.171.1.342.141.514l.061.226c.018.067.043.141.061.208.1.379.19.758.269,1.15l.031.122c.092.434.177.881.251,1.315l.031.2c.061.379.122.764.171,1.15.012.1.024.214.037.318l.043.391c.024.226.055.446.073.673.012.141.024.275.031.416l.037.446c.012.183.031.367.043.557l.018.477.018.453c.006.171.018.349.018.526v.734l.086-.061c.092-.061.183-.122.269-.19.128-.1.251-.2.373-.294l.281-.226.257-.2c.122-.1.245-.214.361-.324l.263-.239c.079-.067.153-.135.226-.208.122-.116.239-.245.361-.367l.245-.251c.061-.061.128-.128.19-.2.141-.153.275-.312.41-.477l.183-.214c.043-.049.092-.1.135-.159.208-.263.4-.532.55-.74l.061-.08.049-.067c.208-.3.41-.612.587-.917l.037-.073c.153-.263.287-.508.41-.746-.043-.171-.086-.342-.128-.508l-.073-.281c-.018-.073-.037-.141-.055-.208-.1-.373-.214-.746-.33-1.107-.024-.073-.049-.141-.073-.214l-.1-.281c-.067-.2-.135-.391-.208-.581-.031-.086-.067-.165-.1-.251l-.128-.312c-.067-.159-.128-.324-.2-.477-.037-.086-.08-.171-.122-.251l-.141-.3c-.073-.153-.141-.306-.22-.453-.043-.086-.086-.165-.135-.245l-.165-.3c-.073-.141-.153-.281-.232-.422-.049-.086-.1-.171-.153-.257l-.177-.287c-.079-.128-.159-.263-.245-.391-.061-.092-.122-.177-.183-.263l-.08-.11a.2.2,0,0,0-.024.043c-.055.086-.11.177-.165.263l-.1.165c-.037.061-.073.116-.116.177q-.1.147-.22.294l-.1.141-.11.147c-.092.116-.2.232-.294.349l-.086.1-.1.116c-.135.147-.281.294-.428.44l-.1.1c-.183.177-.373.355-.569.52s-.4.342-.612.5c-.049.037-.1.073-.147.1L32,19.381c-.031.024-.067.049-.1.073Zm7.577,3.975c.079.355.153.74.22,1.138a19.194,19.194,0,0,0,.361-2.507c-.018.049-.037.1-.055.153l-.08.208c-.055.135-.11.275-.171.41L39.716,23c-.067.147-.135.294-.2.434ZM.9,22.06a20.292,20.292,0,0,0,.361,2.507c.067-.4.141-.783.22-1.138-.067-.147-.141-.294-.2-.434L1.2,22.83c-.055-.135-.116-.269-.171-.4l-.086-.22c-.018-.049-.037-.092-.055-.141ZM.93,18.61a13.682,13.682,0,0,0,.312,1.719l.024.08c.043.165.086.324.135.489l.055.171c.043.128.079.263.128.391l.079.214c.049.128.086.239.128.349a.217.217,0,0,0,.024.055.113.113,0,0,1,.012-.043c.043-.159.092-.312.141-.471l.1-.324c.037-.116.067-.232.11-.349.055-.159.11-.318.171-.477l.11-.312c.037-.11.073-.214.116-.324l.2-.5.122-.3c.037-.092.079-.19.116-.281.079-.177.165-.355.251-.526l.128-.269c.037-.08.079-.165.116-.245.116-.232.245-.453.373-.679l.086-.153c.031-.055.061-.116.092-.171.19-.33.391-.654.6-.966.055-.086.116-.171.177-.251l.2-.281c.049-.067.092-.135.141-.2l-.11-.239c-.012-.037-.031-.073-.043-.1l-.043-.11c-.031-.08-.067-.165-.1-.245l-.037-.11-.037-.11c-.031-.086-.055-.165-.08-.251a.816.816,0,0,1-.031-.116l-.031-.122c-.024-.08-.043-.153-.061-.232-.012-.043-.018-.086-.031-.135l-.024-.128c-.018-.073-.031-.141-.043-.214-.006-.049-.018-.1-.024-.147l-.024-.141c-.012-.061-.018-.122-.024-.183s-.012-.128-.018-.2L4.4,12.036c0-.049-.012-.1-.012-.141-.012-.159-.012-.318-.012-.483,0-.214.012-.434.031-.66a1.3,1.3,0,0,1,.018-.153l.012-.08c.018-.165.031-.3.055-.434.012-.055.018-.116.031-.171l-.1.08c-.043.037-.086.073-.135.11-.122.1-.239.208-.361.318l-.183.165c-.165.153-.33.312-.489.471A19.524,19.524,0,0,0,.936,18.61Zm34.878-3.645c.049.067.092.135.141.2l.2.287c.061.08.116.165.171.251.2.312.4.636.6.96.037.061.067.122.1.183l.092.165c.122.22.245.434.361.66.043.08.08.159.116.245l.128.269c.086.177.171.349.251.526.043.092.079.19.116.281l.128.306c.067.159.135.324.2.489.043.1.079.208.116.318l.116.318c.055.159.116.318.171.477.037.116.073.232.11.355l.1.33c.049.153.1.306.141.465a.113.113,0,0,0,.012.043l.024-.055c.031-.086.067-.171.1-.257l.055-.147c.018-.055.037-.1.055-.159.031-.092.061-.183.092-.281l.043-.141c.018-.049.031-.1.049-.147.031-.092.055-.19.079-.281l.043-.153c.012-.049.024-.092.037-.141.024-.1.043-.19.067-.287l.067-.294c.024-.116.043-.239.067-.355L40,19.173q.046-.275.073-.55a19.527,19.527,0,0,0-2.324-7.547c-.159-.159-.324-.318-.489-.471l-.165-.147c-.128-.116-.251-.226-.379-.336-.049-.037-.092-.073-.141-.116l-.092-.073a1.678,1.678,0,0,1,.031.171c.018.128.037.257.049.385l.018.128.018.147c.018.226.031.446.031.66,0,.159,0,.324-.012.483a.913.913,0,0,1-.012.128l-.012.135c0,.073-.012.147-.018.22s-.018.116-.024.177l-.018.141a1.239,1.239,0,0,1-.024.159c-.012.073-.031.141-.043.214l-.024.128a.978.978,0,0,1-.031.128c-.018.08-.037.153-.061.226l-.037.122c-.012.037-.018.08-.031.116-.024.08-.049.159-.08.239l-.037.116c-.012.037-.024.073-.037.116-.031.08-.061.165-.1.245l-.043.11a.529.529,0,0,1-.043.1l-.11.239Zm-25.76,4.146.049.031.245.159c.1.067.214.128.324.19l.245.141c.122.067.251.135.373.2l.214.11c.147.073.306.147.459.22l.147.073c.177.08.355.159.532.232l.092.043a18.53,18.53,0,0,0,2.66.862c.245.061.471.11.7.159l.128.024c.19.037.385.08.581.11l.2.031c.19.031.349.055.514.08l.3.037c.141.018.281.037.428.049l.349.031c.128.012.257.024.385.031l.41.024.33.018h.349V13.834H20l-.294-.012a1.807,1.807,0,0,1-.257-.012c-.171-.012-.336-.031-.508-.043l-.251-.024c-.073-.006-.153-.012-.226-.024-.208-.024-.416-.061-.618-.1l-.165-.024a1.794,1.794,0,0,1-.177-.031c-.312-.061-.624-.128-.923-.208-.037-.012-.067-.018-.1-.031l-.061-.018c-.245-.067-.489-.135-.722-.214a2.1,2.1,0,0,1-.208-.08l-.22-.086c-.141-.049-.281-.1-.416-.159-.073-.031-.147-.067-.22-.1l-.22-.1c-.122-.055-.239-.11-.355-.171a2.428,2.428,0,0,1-.214-.122l-.208-.122-.159.208c-.086.11-.171.22-.257.336-.055.08-.116.159-.171.245l-.2.281c-.073.1-.147.214-.22.318s-.116.183-.171.275l-.183.3c-.061.1-.128.2-.19.306s-.116.214-.177.318l-.177.318c-.055.092-.1.19-.153.281-.159.312-.318.63-.471.954-.037.08-.073.159-.1.239l-.135.312c-.067.147-.128.294-.19.44-.037.092-.073.19-.11.281l-.135.342c-.049.135-.1.263-.153.4-.037.1-.067.2-.1.306l-.116.355-.043.122ZM20.916,13.84v8.134h.147c.067,0,.135,0,.2-.006.11,0,.22-.012.33-.018l.41-.024c.128-.006.257-.018.385-.031l.349-.031c.141-.012.287-.031.428-.049l.3-.037.489-.073.226-.037.581-.11.122-.024c.226-.049.453-.1.679-.153a19.062,19.062,0,0,0,2.679-.868l.08-.037c.183-.073.361-.153.538-.232l.147-.073.459-.22.22-.116c.122-.067.251-.128.367-.2l.239-.141c.11-.061.22-.128.33-.2l.245-.159s.037-.024.049-.031L30.878,19l-.116-.349c-.037-.11-.067-.214-.11-.324-.049-.141-.1-.275-.153-.41l-.128-.336c-.037-.092-.073-.19-.11-.281-.061-.153-.128-.306-.2-.453l-.135-.306c-.037-.08-.067-.159-.1-.239-.153-.324-.306-.648-.471-.954-.049-.1-.1-.19-.159-.287l-.171-.312c-.061-.11-.116-.22-.177-.324s-.122-.208-.19-.306l-.183-.3c-.055-.092-.116-.19-.171-.275-.067-.1-.141-.214-.214-.312l-.19-.281c-.055-.086-.116-.171-.177-.251-.08-.11-.165-.22-.251-.324l-.165-.214-.208.122c-.073.043-.141.086-.214.122-.116.061-.239.116-.355.171l-.22.1c-.073.037-.141.067-.214.1-.135.055-.275.11-.416.159l-.226.086c-.067.024-.135.055-.2.073-.232.08-.477.147-.722.214l-.061.018c-.037.012-.067.018-.1.031-.3.08-.612.147-.923.208-.061.012-.116.018-.177.031l-.171.031c-.2.037-.4.067-.605.092-.073.012-.153.018-.226.024l-.251.024c-.171.018-.336.037-.508.043-.086,0-.171.006-.257.012l-.294.012H20.9Zm7.137-2.134.061.08.177.232c.049.061.092.122.141.183.116.159.226.324.336.489l.141.208c.043.061.086.122.128.19.122.19.239.385.361.581l.1.171c.037.055.067.11.1.165.183.312.361.63.526.954l.086.171q.211.4.4.826c.031.073.061.147.1.22l.1.245c.086.19.165.373.245.569.037.086.067.171.1.257l.1.269c.067.177.141.355.2.538.031.086.061.177.092.263l.1.306.018-.012c.055-.037.11-.08.159-.116.086-.067.165-.128.245-.2l.177-.141c.049-.043.1-.086.153-.122.079-.067.153-.141.232-.208l.165-.153c.043-.043.092-.08.135-.122.079-.08.159-.159.239-.245l.147-.153c.037-.037.073-.073.1-.11.128-.141.245-.281.367-.428l.086-.1c.141-.177.275-.355.4-.538.018-.024.037-.055.055-.08l.08-.122c.079-.116.153-.232.226-.349.024-.037.043-.08.067-.116l.086-.159.037-.067L34.774,15l-.2-.251c-.055-.073-.116-.147-.177-.22s-.128-.153-.2-.226l-.214-.245-.22-.257c-.049-.055-.1-.11-.153-.165l-.1-.11c-.281-.3-.575-.587-.868-.862l-.1-.1c-.043-.043-.086-.086-.128-.122-.092-.086-.183-.165-.275-.245l-.245-.214c-.067-.061-.141-.122-.214-.183-.092-.073-.177-.147-.269-.214l-.257-.2c-.08-.061-.159-.128-.239-.19l-.275-.2-.263-.19-.263-.19c-.1-.067-.2-.128-.294-.19l-.232-.147c-.055.08-.116.153-.177.232a5.871,5.871,0,0,1-.483.526,7.052,7.052,0,0,1-.538.471c-.1.08-.2.159-.312.232Zm-18.9,6.77.147.11.031.018.012-.024.1-.3c.024-.08.055-.165.08-.245.08-.226.165-.446.251-.66l.08-.2c.024-.067.049-.135.073-.2.11-.269.226-.532.349-.8l.043-.092a1.4,1.4,0,0,1,.061-.141c.312-.673.654-1.327,1.015-1.951.024-.037.043-.073.067-.11l.049-.073c.147-.251.294-.5.453-.734l.116-.171.122-.177c.122-.177.245-.361.367-.532.043-.061.092-.122.141-.183l.171-.226s.043-.061.067-.092c-.1-.073-.2-.141-.287-.214A6.728,6.728,0,0,1,12.1,11c-.159-.153-.312-.324-.459-.5-.073-.086-.135-.171-.2-.251l-.232.153c-.1.061-.2.122-.287.19s-.2.135-.294.208l-.269.19c-.086.061-.165.116-.245.177-.1.073-.19.147-.281.22l-.257.2c-.08.061-.159.122-.232.183-.092.073-.177.153-.269.232l-.251.22c-.073.061-.147.128-.22.19-.092.086-.183.171-.275.263l-.11.1q-.349.33-.679.679l-.116.122c-.061.067-.122.128-.183.2s-.141.159-.214.245l-.214.251c-.067.08-.135.153-.2.232s-.116.147-.177.226l-.2.251-.067.086.024.049.092.171.073.128c.055.092.11.177.171.269l.11.165c.024.037.049.08.073.116.128.183.257.361.4.538l.11.128c.11.135.22.269.336.4a.835.835,0,0,0,.1.1l.141.147c.08.086.159.171.245.251.043.037.08.073.122.116l.159.147.251.232c.043.037.092.073.135.11l.165.135c.086.073.177.147.269.22Zm20.842-8.96.275.183c.092.061.19.122.275.183.116.08.226.159.342.245l.251.177c.08.055.165.116.245.177.122.092.245.19.367.287l.11.092c.226.183.453.367.673.557l.116.1c.1.086.2.171.294.257l.251.232.226.214c.086.08.171.165.257.245s.165.171.245.257l.214.22c.079.08.159.165.232.245s.159.177.239.269l.2.226c.073.086.153.171.226.263l.2.257.043-.11c.018-.043.031-.08.049-.122.024-.061.043-.122.061-.177l.037-.122c.012-.043.024-.08.037-.122.018-.061.031-.122.049-.177l.037-.128c.012-.037.018-.08.031-.116.012-.061.024-.116.037-.177l.031-.141c.006-.037.018-.073.024-.11.012-.067.018-.128.031-.2l.037-.232c.012-.08.018-.159.024-.245l.018-.183c.006-.141.012-.287.012-.428,0-.2-.006-.41-.024-.605a.251.251,0,0,0-.006-.067l-.012-.086c-.018-.153-.031-.306-.061-.459-.006-.037-.018-.08-.024-.116l-.037-.171c-.018-.1-.043-.214-.067-.318-.018-.067-.037-.135-.061-.2l-.061-.208s-.012-.043-.018-.067L35.2,8.978l-.177-.116c-.073-.049-.141-.092-.214-.135-.2-.128-.41-.251-.618-.367-.049-.024-.092-.049-.141-.073l-.19-.1c-.122-.067-.245-.128-.367-.19l-.153-.073-.208-.1-.355-.165L32.6,7.584l-.22-.092c-.11-.049-.226-.092-.342-.135-.061-.024-.122-.043-.19-.067l-.226-.08c-.116-.043-.226-.08-.342-.116-.067-.024-.135-.043-.2-.061l-.226-.067c-.116-.037-.232-.067-.349-.1-.037-.012-.08-.018-.122-.031a.115.115,0,0,0,.012.049c.018.086.031.171.043.263.012.067.012.1.018.122q.018.193.018.385a3.562,3.562,0,0,1-.043.569,1.158,1.158,0,0,1-.031.141l-.024.1a2.877,2.877,0,0,1-.073.312c-.018.055-.037.11-.061.165l-.049.135c-.031.086-.055.165-.092.245-.024.055-.055.116-.086.171L30,9.51Zm-24.4-.4s-.012.043-.018.061l-.061.214c-.018.067-.043.135-.061.208-.024.1-.043.2-.067.306l-.037.177c-.006.043-.018.08-.024.122-.024.141-.037.281-.055.422l-.012.1s-.006.055-.012.08c-.018.2-.024.4-.024.605,0,.141,0,.287.012.428l.018.2c0,.073.012.147.018.226,0,.031.012.067.012.1l.018.135c.006.061.018.128.031.19l.049.245c.012.061.024.116.037.177.012.043.018.08.031.122l.037.128c.012.061.031.116.049.177.012.043.024.08.037.122l.043.122c.018.061.037.116.061.177a1.019,1.019,0,0,0,.049.122l.043.11.2-.257.22-.257.2-.226c.08-.092.159-.183.245-.275s.153-.165.232-.245l.208-.22c.086-.086.165-.177.251-.263s.165-.165.251-.245l.232-.22c.08-.08.159-.153.245-.232l.294-.257.116-.1c.226-.19.453-.379.685-.563l.122-.1c.11-.092.22-.177.336-.263.08-.061.165-.122.251-.177l.257-.183c.11-.08.22-.159.33-.232.092-.061.183-.122.275-.177l.269-.177h.012L10.984,9.5c-.031-.055-.061-.116-.086-.171a1.99,1.99,0,0,1-.092-.245l-.049-.135c-.018-.055-.043-.11-.061-.165-.031-.1-.049-.208-.073-.312l-.024-.11a1.158,1.158,0,0,1-.031-.141,3.616,3.616,0,0,1-.043-.569q0-.193.018-.385a.473.473,0,0,1,.012-.092h.092V7.149l-.092-.012c.012-.086.024-.165.037-.251a.144.144,0,0,1,.012-.049c-.043.012-.08.018-.122.031l-.318.092-.232.067c-.073.024-.153.043-.226.067-.1.031-.2.067-.306.1l-.239.086c-.073.024-.141.049-.208.073-.1.037-.208.08-.306.122l-.232.1c-.067.024-.135.055-.2.08-.11.049-.22.1-.33.153l-.22.1c-.055.024-.116.055-.171.08-.135.067-.263.135-.4.208l-.171.092c-.043.024-.086.043-.128.067-.226.128-.453.263-.673.4-.043.024-.086.055-.128.086l-.165.11c-.086.055-.165.11-.251.165Zm8.6,2.379.092.055c.067.037.128.08.2.11.1.049.2.1.3.141l.239.11.2.092c.122.049.245.1.367.141l.239.092c.061.024.116.049.177.067.2.067.4.122.605.183l.11.031a.74.74,0,0,0,.11.031c.281.073.575.141.868.2l.147.024c.251.043.5.086.752.116l.171.018.232.024c.171.018.349.037.526.049.073,0,.141,0,.214.006h.257a.551.551,0,0,0,.08.012V7a.408.408,0,0,1-.043.018l-.08.037c-.067.031-.141.061-.22.1l-.128.061c-.08.037-.147.073-.22.11l-.159.086c-.08.043-.159.08-.239.128l-.183.1c-.08.049-.165.1-.251.147l-.208.128c-.086.055-.177.11-.269.171l-.22.147c-.092.061-.19.128-.287.2l-.239.165c-.1.073-.2.147-.3.22-.08.061-.165.122-.245.19-.1.08-.208.165-.312.251l-.055.043c-.067.055-.128.11-.2.165-.1.086-.2.171-.294.263l-.1.1-.171.153c-.1.1-.214.2-.318.312l-.122.122c-.049.043-.092.092-.141.141-.141.147-.287.3-.428.459l-.073.073s-.055.061-.086.092c-.092.1-.19.214-.281.324ZM20.916,7V12.99h.336c.073-.012.141-.012.214-.018.171-.012.342-.031.508-.049l.245-.024a1.742,1.742,0,0,0,.177-.018c.245-.031.483-.073.722-.116l.177-.031c.294-.055.587-.122.868-.2l.128-.037.171-.049c.177-.049.355-.1.526-.159.061-.024.122-.043.183-.067l.245-.092c.116-.043.239-.086.355-.135a2.054,2.054,0,0,0,.2-.1l.239-.11c.1-.043.2-.092.294-.141.067-.037.135-.073.2-.11l.086-.049c-.092-.11-.19-.214-.281-.324-.031-.031-.061-.067-.092-.1l-.073-.08c-.141-.153-.281-.306-.422-.453-.049-.055-.1-.1-.153-.153l-.135-.135c-.1-.1-.2-.2-.294-.287a2.035,2.035,0,0,0-.171-.153l-.116-.1c-.1-.086-.2-.177-.294-.257-.073-.061-.141-.122-.214-.177l-.037-.031c-.1-.086-.208-.171-.312-.251-.08-.061-.153-.122-.232-.177-.116-.086-.214-.165-.312-.232-.08-.055-.159-.116-.239-.171-.1-.067-.19-.128-.281-.19s-.153-.1-.226-.147c-.092-.055-.177-.116-.269-.165-.073-.043-.141-.086-.208-.128-.086-.049-.171-.1-.251-.147l-.19-.1c-.08-.043-.159-.086-.232-.122l-.165-.086c-.08-.037-.147-.073-.22-.11l-.128-.061-.214-.1-.086-.037A.408.408,0,0,0,20.9,7ZM12.158,9.791l.031.049c.024.031.049.067.073.1.092.116.2.22.306.33.024.024.043.049.067.073s.031.037.049.055c.153.147.318.294.5.434.031.024.067.049.1.073l.135.1.055.037c.116-.135.226-.263.342-.391l.165-.177c.141-.153.281-.306.422-.453l.2-.2c.135-.135.269-.263.4-.391l.183-.171c.165-.153.33-.3.5-.434l.073-.067c.19-.159.373-.306.557-.453l.159-.122c.128-.1.257-.2.385-.281l.183-.128q.174-.128.349-.239c-.177.049-.324.1-.471.147l-.055.018c-.165.055-.33.11-.5.171l-.1.037c-.171.061-.349.128-.526.2l-.049-.08-.043.018.031.086c-.171.067-.342.135-.52.208l-.086.037c-.183.08-.373.159-.563.239l-.1.049c-.4.177-.8.373-1.186.575l-.1.055c-.2.1-.391.208-.593.324l-.092.055c-.092.049-.177.1-.269.153ZM23.595,7.51H23.6c.11.08.226.159.342.239l.19.135c.122.092.251.183.379.281l.165.122c.183.141.367.294.557.453l.08.073c.159.135.324.281.489.434l.183.177c.135.122.269.257.4.391l.2.2c.141.147.281.3.422.453l.165.177c.116.128.226.257.342.391A.336.336,0,0,0,27.57,11l.135-.1c.037-.024.067-.049.1-.073.177-.141.342-.287.5-.434l.037-.037c.018-.018.037-.043.055-.061.116-.116.226-.232.33-.355,0,0,.043-.061.067-.092l.037-.055c-.092-.055-.183-.1-.269-.153l-.092-.055c-.2-.11-.4-.22-.593-.324l-.08-.043c-.416-.214-.82-.41-1.217-.587l-.1-.049c-.19-.086-.373-.165-.557-.239l-.055-.024c-.208-.086-.379-.153-.55-.22l.018-.092-.043-.018-.031.086c-.177-.067-.355-.135-.526-.2l-.11-.037c-.171-.061-.336-.116-.5-.171l.018-.092a.19.19,0,0,0-.043-.012l-.037.086c-.153-.049-.3-.1-.446-.141h-.024ZM11.559,6.6v.024a.617.617,0,0,0-.043.092.572.572,0,0,0-.024.1l-.031.122s-.018.061-.024.092a1.128,1.128,0,0,0-.024.141l-.018.11a.511.511,0,0,1-.012.061,2.668,2.668,0,0,0-.018.312,3.65,3.65,0,0,0,.031.446c0,.024.012.049.012.073s.012.055.018.086l.012.055a1.431,1.431,0,0,0,.055.232c.012.037.024.067.037.1l.061.159c.018.061.043.116.067.177l.043.086c.116-.067.226-.135.342-.2l.092-.049c.214-.122.428-.232.642-.342l.128-.067c.208-.1.416-.208.618-.306l.116-.055c.208-.1.422-.2.624-.287.232-.1.434-.183.63-.263l.116-.049q.284-.119.569-.22l.128-.049c.183-.067.367-.135.544-.2l.1-.031c.171-.055.342-.116.5-.165l.055-.018c.171-.055.342-.1.508-.153l.1-.031q.239-.064.459-.128l.086-.024c.073-.018.147-.037.214-.055a1.27,1.27,0,0,1-.141-.018l-.116-.012c-.135-.018-.281-.031-.428-.043L17.46,6.3l-.477-.037H16.9c-.153-.012-.312-.024-.471-.031h-.11q-.257-.018-.532-.018h-.826c-.2.006-.4.018-.6.024l-.018-.092H14.3v.092c-.2.012-.4.024-.6.043l-.122.012c-.208.018-.416.043-.63.073l-.141.018c-.214.031-.434.061-.654.1l-.1.018c-.171.031-.336.061-.508.1Zm11.149-.214.208.055.1.024c.147.037.294.08.453.122l.1.031c.159.049.324.1.5.153l.049.012c.177.055.342.11.514.165l.1.037c.177.061.355.122.538.2l.128.049c.183.067.373.141.563.22l.116.049c.2.08.4.165.6.251,0,0,.037.012.037.018.2.092.41.183.624.281l.116.055c.208.1.41.2.618.306l.1.055c.239.122.453.239.667.361l.086.049.342.2c.018-.031.031-.061.043-.086.024-.061.049-.116.067-.177l.061-.159c.012-.037.024-.067.037-.1.024-.08.037-.153.055-.232l.012-.055s.012-.055.018-.086.012-.049.012-.073a2.74,2.74,0,0,0,.031-.446,1.78,1.78,0,0,0-.018-.312.316.316,0,0,0-.012-.067l-.018-.11a1.015,1.015,0,0,0-.018-.135.51.51,0,0,0-.024-.092l-.031-.116c-.006-.031-.018-.067-.024-.1s-.024-.067-.037-.1V6.605c-.19-.037-.355-.067-.52-.1l-.092-.018c-.226-.037-.446-.073-.673-.1l-.116-.018c-.22-.031-.44-.055-.654-.073h-.049c-.471-.049-.917-.073-1.364-.08l-.012-.092h-.049v.092H25.2c-.2,0-.4.006-.593.018-.4.018-.777.043-1.156.08l-.018-.092H23.4l.006.1-.489.055-.024-.092h-.031l.012.1c-.061.006-.122.012-.183.024ZM4.88,8.562a.03.03,0,0,0-.006.018c0,.006-.012.012-.012.012a.239.239,0,0,0,.024-.031Zm31.227.018s.012.006.012.012a.134.134,0,0,1-.018-.031.03.03,0,0,0,.006.018ZM11.761,2.893A19.322,19.322,0,0,0,8.079,5.272c-.122.122-.269.263-.4.41s-.269.294-.385.434L7.2,6.232c-.092.11-.177.22-.263.33l-.11.159c-.086.116-.147.208-.208.294-.024.037-.049.08-.073.116l-.073.116c-.049.073-.1.153-.141.226-.031.049-.055.1-.08.141l-.061.116-.012.018.043-.024c.08-.049.159-.092.239-.141.1-.055.2-.11.3-.159l.2-.1L7.186,7.2,7.5,7.058l.208-.1c.073-.037.147-.067.226-.1.116-.049.226-.092.342-.141l.214-.086c.073-.031.141-.061.214-.086.135-.049.269-.1.41-.141l.2-.067c.061-.018.122-.043.183-.061.239-.073.477-.147.716-.214.073-.018.147-.037.22-.061l.08-.018c.147-.037.287-.073.422-.1.018-.031.031-.061.049-.092l.043-.092c.018-.037.037-.073.055-.1.086-.153.19-.312.294-.465,0-.006.018-.024.024-.031.1-.135.208-.275.324-.41.024-.031.055-.055.08-.086l.043-.043c.1-.11.19-.2.287-.294.037-.037.073-.067.11-.1l.1-.086c.08-.073.159-.141.245-.214a1.2,1.2,0,0,1,.141-.1l.11-.086c.08-.061.165-.122.251-.183.055-.037.11-.073.159-.1l.122-.079a.361.361,0,0,1,.037-.024c-.061-.018-.122-.037-.183-.049l-.165-.049c-.049-.012-.1-.024-.141-.037-.171-.043-.336-.079-.5-.116L12.268,3c-.177-.037-.349-.067-.52-.092Zm18.28,2.978c.153.037.3.073.453.116l.22.055c.263.073.52.147.777.226l.159.055.171.061c.153.055.306.1.459.159l.19.073.2.08c.128.049.257.1.379.153l.2.092.2.092c.122.055.239.11.355.165.073.037.141.073.208.11l.19.1c.11.055.226.116.33.177.073.043.147.086.214.122l.061.037s-.012-.018-.018-.031l-.055-.1c-.024-.049-.049-.1-.08-.147-.043-.073-.086-.141-.128-.214l-.079-.122c-.024-.043-.055-.086-.08-.128-.049-.073-.1-.141-.147-.214l-.092-.128c-.024-.037-.055-.073-.08-.116-.061-.08-.128-.165-.2-.245l-.086-.1a1.116,1.116,0,0,0-.08-.1c-.086-.1-.171-.2-.263-.294l-.128-.141c-.135-.141-.275-.287-.422-.422a19.5,19.5,0,0,0-3.663-2.355c-.171.024-.342.061-.514.092l-.183.043c-.159.037-.312.067-.477.11-.055.012-.11.031-.165.043l-.177.049c-.049.012-.1.031-.153.043.006,0,.018.012.024.018l.128.079c.055.037.116.073.171.11.08.055.159.116.239.171l.122.092.147.11c.08.061.153.128.226.2l.11.1c.043.037.08.067.116.1.092.086.171.177.257.263l.067.067s.055.061.086.092c.116.135.226.275.33.41l.024.031a4.211,4.211,0,0,1,.294.465l.055.11.049.092.043.086ZM14.507,3.627c-.116.061-.226.122-.336.183a.352.352,0,0,0-.043.024c-.19.11-.355.214-.514.318a.393.393,0,0,0-.08.061l-.122.092c-.086.061-.171.122-.245.183-.031.024-.061.055-.092.08l-.128.11c-.061.055-.128.11-.19.165l-.1.1-.1.1c-.055.055-.11.11-.159.165l-.086.1-.092.11c-.043.055-.092.11-.128.165l-.049.067c.092-.018.183-.031.275-.043L12.4,5.6c.355-.055.709-.1,1.052-.135s.685-.055,1.015-.073h.086c.318-.018.63-.024.93-.024h.037c.287,0,.569,0,.832.018l2.116.183L18.011,5.3c-.1-.061-.214-.122-.324-.183l-.1-.055c-.147-.08-.3-.165-.453-.245l-.1-.055c-.122-.061-.245-.128-.373-.19l-.171-.086c-.11-.055-.22-.1-.33-.159l-.171-.08c-.135-.061-.245-.11-.361-.165l-.19-.08c-.128-.055-.257-.11-.385-.159l-.159-.061c-.128-.049-.263-.1-.4-.153ZM25.484,5.364h.477c.214.006.428.012.654.024.245.012.471.031.7.049l.1.012q.33.028.679.073l.116.012c.232.031.471.067.709.1a.467.467,0,0,0-.049-.067c-.037-.049-.08-.1-.116-.147l-.1-.122-.092-.11c-.043-.049-.1-.1-.147-.153l-.11-.116a.74.74,0,0,0-.1-.1c-.055-.055-.122-.1-.183-.159l-.128-.11a.617.617,0,0,0-.1-.08c-.086-.067-.183-.135-.275-.2l-.1-.073-.073-.055a5.794,5.794,0,0,0-.5-.312c-.135-.073-.263-.147-.391-.214-.135.049-.263.1-.4.153l-.159.067c-.128.049-.257.1-.385.159l-.2.086c-.11.049-.226.1-.336.153l-.2.092c-.11.055-.22.1-.33.159l-.177.086c-.122.061-.245.122-.361.183l-.116.061c-.153.08-.306.159-.446.239l-.116.067c-.1.061-.208.116-.312.177l-.459.269.263-.037.08-.012c.153-.018.312-.037.471-.049h.049c.208-.024.385-.037.569-.049.2-.012.391-.024.581-.031h.067q.284-.018.587-.018h.318Zm-2.77-2.9c-.018.031-.037.067-.055.1l-.049.092c-.043.079-.092.165-.135.245l-.734,1.511-.367.856.312-.2c.1-.061.208-.128.318-.2l.055-.031q.193-.119.4-.239l.122-.067c.1-.061.208-.116.318-.177l.165-.092c.1-.055.2-.11.306-.165l.19-.1c.1-.055.208-.1.312-.159l.2-.1c.11-.055.22-.1.33-.159l.2-.092c.128-.061.257-.116.391-.177l.159-.067c.073-.031.153-.067.226-.1-.159-.061-.324-.11-.5-.165l-.232-.073c-.061-.024-.128-.043-.19-.061-.294-.086-.593-.153-.82-.2l-.092-.024-.073-.018c-.245-.049-.5-.1-.764-.135ZM15.6,3.15c.073.031.153.061.226.1l.159.073c.128.055.263.116.391.177l.2.092c.11.055.226.1.33.159l.2.1c.1.055.208.1.312.159l.19.1c.1.055.2.11.306.165l.165.092c.11.061.214.116.318.177l.122.067c.141.08.275.159.41.239l.043.024c.116.067.22.135.324.2l.312.2-.923-2.024L18.506,2.9c-.043-.086-.092-.171-.135-.251l-.049-.086c-.018-.031-.037-.067-.055-.1-.263.037-.52.086-.764.135a.217.217,0,0,0-.067.018c-.031.006-.061.018-.092.024-.342.073-.593.141-.826.2-.067.018-.128.043-.19.061l-.226.073c-.171.055-.342.11-.5.171Zm3.578-.789c.024.049.049.092.073.141l.422.838c.055.116.11.226.159.336l.018.037c.049.1.092.2.135.3l.086.19v-1.9c-.19,0-.373.012-.55.024l-.141.012c-.067,0-.135.012-.2.018Zm1.737-.055V4.2l.086-.2c.043-.1.086-.2.135-.294l.018-.043c.049-.11.1-.22.159-.336l.422-.838c.024-.049.049-.092.073-.141-.067,0-.128-.012-.2-.012L21.46,2.33c-.177-.012-.361-.018-.55-.024Zm-7.847,0c.043.012.086.018.128.031.171.043.336.092.508.141l.19.055c.183.055.367.116.557.183.251-.116.514-.232.789-.336.006,0,.037-.012.043-.012.318-.122.642-.226.96-.324l.22-.055.22-.055c.2-.055.4-.1.618-.153.092-.018.183-.037.275-.049l.214-.037a.7.7,0,0,1-.043-.067l-.1-.141q-.11-.156-.22-.294l-.061-.073a.114.114,0,0,1-.018-.024,19.738,19.738,0,0,0-4.293,1.2ZM23.191,1.7l.22.037c.092.012.183.031.275.049.214.043.428.1.636.153l.208.055c.073.018.147.037.214.055.33.1.66.208.979.33.294.11.563.226.813.342l.557-.183.122-.037.073-.018c.171-.049.336-.1.5-.141a.979.979,0,0,1,.128-.031,19.738,19.738,0,0,0-4.293-1.2.134.134,0,0,1-.024.031s-.024.031-.031.037c-.092.116-.165.214-.239.318l-.08.116c-.024.037-.043.061-.061.092Zm-2.275-.232c.165,0,.324.012.489.024h.128c.251.018.5.043.746.067.037-.061.073-.116.11-.171a.19.19,0,0,0,.024-.037q.11-.174.22-.33l.037-.049Q22.084.908,21.515.881H21.5q-.294-.018-.587-.018v.612Zm-2.593-.5.037.049c.067.1.141.2.208.312l.031.049c.037.055.073.116.11.171.245-.024.5-.049.746-.067h.122c.165-.012.324-.018.489-.024V.85c-.2,0-.391.012-.587.018h-.012Q18.9.9,18.311.96Z" transform="translate(0.006 -0.006)" fill="#000"/>
  </g>
</svg>
